<svg version="1.2" xmlns="http://www.w3.org/2000/svg" viewBox="0 0 65 65" width="65" height="65">
	<title>01-svg</title>
	<style>
		.s0 { fill: #1774f4 } 
	</style>
	<path id="Layer" class="s0" d="m22.9 51.6l1.7-1.2 1.2 1.7-1.7 1.2z"/>
	<path id="Layer" class="s0" d="m26.7 48.9l14.3-9.9 1.2 1.7-14.3 9.9z"/>
	<path id="Layer" fill-rule="evenodd" class="s0" d="m65 14.9v50.1h-60.8c-2.3 0-4.2-1.9-4.2-4.2v-28.3c0-4 2.5-7.5 6.1-8.8-1.8-1.4-3-3.5-3-5.9 0-4 3.3-7.3 7.4-7.3 4 0 7.3 3.3 7.3 7.3 0 2.1-0.8 3.9-2.2 5.3h2.6q0.3 0 0.6-0.2l7.1-5.4q0.6-0.4 1.4-0.6v-2l2.7-0.7q0.5-1.8 1.5-3.4l-1.5-2.5 5.6-5.6 2.4 1.5q1.7-0.9 3.5-1.4l0.7-2.8h7.9l0.7 2.8q1.8 0.5 3.4 1.4l2.5-1.5 5.6 5.6-1.5 2.5q0.9 1.6 1.4 3.4zm-54.5 8.2c2.9 0 5.3-2.3 5.3-5.2 0-2.9-2.4-5.3-5.3-5.3-2.9 0-5.2 2.4-5.2 5.3 0 2.9 2.3 5.2 5.2 5.2zm-8.4 17.8c0 1.8 1.4 3.2 3.2 3.2h7.3c1.2 0 2.1 0.9 2.1 2.1v6.3c0 0.5 0.2 1.1 0.6 1.5 0.4 0.3 1 0.6 1.5 0.6 1.2 0 2.1-1 2.1-2.1v-9.5c0-1.7-1.4-3.1-3.1-3.1h-4.2v-11.5h8.3c1.2 0 2.3-0.4 3.2-1.1l6.7-5.2c0.4-0.4 0.6-0.9 0.6-1.4 0-1-0.8-1.8-1.7-1.8h-0.5c-0.3 0-0.7 0.1-1 0.4l-7.1 5.3c-0.5 0.4-1.2 0.6-1.9 0.6h-8.7c-4.1 0-7.4 3.3-7.4 7.4zm60.8-17.6l-0.6 0.2q-0.5 1.8-1.5 3.5l1.5 2.4-5.6 5.6-2.4-1.5q-1.7 0.9-3.5 1.4l-0.7 2.8h-7.9l-0.4-1.9-20.8 14.5v2.1c0 2.3-1.9 4.2-4.2 4.2-1.1 0-2.2-0.5-3-1.3q0 0 0 0l-5.4 3.7v1.8c0 0.7-0.2 1.4-0.6 2.1h55.1zm-54.5 33.1l4.4-3q-0.2-0.5-0.2-1.1v-6.2h-4.2zm-4.2 6.3c1.2 0 2.1-0.9 2.1-2.1v-14.6h-1c-1.2 0-2.3-0.4-3.2-1.1v15.7c0 1.2 1 2.1 2.1 2.1zm16.8-19.9v4.8l19.1-13.3q-1.1-0.4-2.1-0.9l-2.4 1.5-5.6-5.7 1.5-2.4q-0.7-1.3-1.2-2.7l-5.9 4.6c-1.3 1-2.9 1.5-4.5 1.5h-6.2v7.4h2.1c2.9 0 5.2 2.3 5.2 5.2zm41.9-26.4l-2.3-0.6-0.2-0.6q-0.5-2.2-1.7-4.1l-0.3-0.5 1.3-2.1-3.3-3.3-2.1 1.3-0.5-0.3q-2-1.2-4.1-1.7l-0.7-0.2-0.5-2.4h-4.6l-0.6 2.4-0.6 0.2q-2.2 0.5-4.1 1.7l-0.6 0.3-2.1-1.3-3.2 3.3 1.3 2.1-0.4 0.5q-1.1 1.9-1.7 4.1l-0.1 0.6-2.4 0.6v0.3c1.8 0.3 3.1 1.9 3.1 3.8 0 0.7-0.2 1.3-0.5 1.9q0.5 2.1 1.6 3.9l0.4 0.6-1.3 2 3.2 3.3 2.1-1.3 0.6 0.4q1.9 1.1 4.1 1.7l0.6 0.1 0.6 2.4h4.6l0.5-2.4 0.7-0.2q2.1-0.5 4.1-1.6l0.5-0.4 2.1 1.3 3.3-3.3-1.3-2 0.3-0.6q1.2-1.9 1.7-4.1l0.2-0.6 2.3-0.6z"/>
	<path id="Layer" fill-rule="evenodd" class="s0" d="m58.7 18.9c0 6.9-5.6 12.6-12.6 12.6-6.9 0-12.6-5.7-12.6-12.6 0-7 5.7-12.6 12.6-12.6 7 0 12.6 5.6 12.6 12.6zm-2.1 0c0-5.8-4.7-10.5-10.5-10.5-5.8 0-10.5 4.7-10.5 10.5 0 5.8 4.7 10.5 10.5 10.5 5.8 0 10.5-4.7 10.5-10.5z"/>
	<path id="Layer" fill-rule="evenodd" class="s0" d="m52.4 18.9c0 3.4-2.8 6.3-6.3 6.3-3.4 0-6.3-2.9-6.3-6.3 0-3.5 2.9-6.3 6.3-6.3 3.5 0 6.3 2.8 6.3 6.3zm-2.1 0c0-2.3-1.9-4.2-4.2-4.2-2.3 0-4.2 1.9-4.2 4.2 0 2.3 1.9 4.2 4.2 4.2 2.3 0 4.2-1.9 4.2-4.2z"/>
	<path id="Layer" class="s0" d="m58.7 58.7h2.1v2.1h-2.1z"/>
	<path id="Layer" class="s0" d="m58.7 54.5h2.1v2.1h-2.1z"/>
	<path id="Layer" class="s0" d="m58.7 50.3h2.1v2.1h-2.1z"/>
	<path id="Layer" class="s0" d="m10.5 58.7h2.1v2.1h-2.1z"/>
	<path id="Layer" class="s0" d="m14.7 58.7h2.1v2.1h-2.1z"/>
	<path id="Layer" class="s0" d="m18.9 58.7h2.1v2.1h-2.1z"/>
</svg>