<svg version="1.2" xmlns="http://www.w3.org/2000/svg" viewBox="0 0 65 65" width="65" height="65">
	<title>02-svg</title>
	<style>
		.s0 { fill: #1774f4 } 
	</style>
	<path id="Layer" fill-rule="evenodd" class="s0" d="m47.4 57v4.1c0 1.8-1.4 3.2-3.1 3.2h-14.5c-1.7 0-3.1-1.4-3.1-3.2v-4.1c0-1.7 1.4-3.1 3.1-3.1h6.2v-5.7l-9.2-5.7 9.2-5.8v-6.6h-6.2v-3.2h-9.4v-2h9.4v-3.1h6.2v-7.3h-8.3v-14.5h18.6v14.5h-8.2v7.3h6.2v8.3h-6.2v6.6l9.2 5.8-9.2 5.7v5.7h6.2c1.7 0 3.1 1.4 3.1 3.1zm-17.6-44.6h14.5v-10.3h-14.5zm2 15.5h10.4v-4.1h-10.4zm-1.1 14.5l6.3 3.9 6.4-3.9-6.4-4zm14.6 14.5c0-0.5-0.4-1-1-1h-14.5c-0.6 0-1 0.5-1 1v4.2c0 0.5 0.4 1 1 1h14.5c0.6 0 1-0.5 1-1z"/>
	<path id="Layer" fill-rule="evenodd" class="s0" d="m20.1 54.2l4.9 4.9-4.9 4.8-1.4-1.4 2.3-2.4h-9c-0.5 1.2-1.6 2.1-3 2.1-1.7 0-3.1-1.4-3.1-3.1 0-1.4 0.9-2.5 2.1-2.9v-22h2.1v22c0.9 0.3 1.5 1 1.9 1.8h9l-2.3-2.3zm-10.1 4.8c0-0.5-0.5-1-1-1-0.6 0-1.1 0.5-1.1 1 0 0.6 0.5 1.1 1.1 1.1 0.5 0 1-0.5 1-1.1z"/>
	<path id="Layer" fill-rule="evenodd" class="s0" d="m65 42.5c0 1.7-1.4 3.1-3.1 3.1-1.4 0-2.5-0.9-2.9-2.1h-7l2.3 2.4-1.4 1.5-4.9-4.9 4.9-4.9 1.4 1.5-2.3 2.4h7c0.3-0.9 1-1.6 1.9-1.9v-29.4c-0.9-0.3-1.6-1-1.9-1.9h-10.6v-2.1h10.6c0.4-1.2 1.5-2.1 2.9-2.1 1.7 0 3.1 1.4 3.1 3.2 0 1.3-0.9 2.4-2.1 2.9v29.4c1.2 0.4 2.1 1.5 2.1 2.9zm-4.1-35.2c0 0.5 0.4 1 1 1 0.6 0 1-0.5 1-1 0-0.6-0.4-1.1-1-1.1-0.6 0-1 0.5-1 1.1zm2 35.2c0-0.6-0.4-1-1-1-0.6 0-1 0.4-1 1 0 0.6 0.4 1 1 1 0.6 0 1-0.4 1-1z"/>
	<path id="Layer" fill-rule="evenodd" class="s0" d="m9 32.4l-9-6.5 9-6.4 9.1 6.4zm-5.5-6.4l5.5 3.9 5.4-3.9-5.4-4z"/>
	<path id="Layer" class="s0" d="m31.8 4.1h10.4v2.1h-10.4z"/>
	<path id="Layer" class="s0" d="m31.8 8.3h6.3v2.1h-6.3z"/>
	<path id="Layer" class="s0" d="m40.1 8.3h2.1v2.1h-2.1z"/>
	<path id="Layer" class="s0" d="m57.7 58h2.1v2.1h-2.1z"/>
	<path id="Layer" class="s0" d="m53.6 58h2.1v2.1h-2.1z"/>
	<path id="Layer" class="s0" d="m49.5 58h2v2.1h-2z"/>
	<path id="Layer" class="s0" d="m19.4 8.3h2.1v2.1h-2.1z"/>
	<path id="Layer" class="s0" d="m23.5 8.3h2.1v2.1h-2.1z"/>
	<path id="Layer" class="s0" d="m15.3 8.3h2v2.1h-2z"/>
</svg>