<svg version="1.2" xmlns="http://www.w3.org/2000/svg" viewBox="0 0 65 65" width="65" height="65">
	<title>03-svg</title>
	<style>
		.s0 { fill: #1774f4 } 
	</style>
	<path id="Layer" fill-rule="evenodd" class="s0" d="m47.2 46.1c0-1.7 1.4-3.1 3.1-3.1 1.8 0 3.2 1.4 3.2 3.1 0 1.8-1.4 3.2-3.2 3.2-1.7 0-3.1-1.4-3.1-3.2zm2.1 0c0 0.6 0.4 1.1 1 1.1 0.6 0 1.1-0.5 1.1-1.1 0-0.5-0.5-1-1.1-1-0.6 0-1 0.5-1 1z"/>
	<path id="Layer" fill-rule="evenodd" class="s0" d="m62.8 43h2.2v6.3h-2.2c-0.8 0-1.5 0.5-1.8 1.2-0.3 0.8-0.2 1.7 0.4 2.3l1.5 1.5-4.4 4.4-1.5-1.5c-0.6-0.6-1.5-0.7-2.3-0.4-0.7 0.3-1.2 1-1.2 1.9v2.1h-6.3v-2.1c0-0.9-0.5-1.6-1.3-1.9-0.8-0.3-1.6-0.2-2.2 0.4l-1.5 1.5-1.3-1.3q0 0.1 0 0.3c0 1.4-1 2.6-2.4 3-0.9 2.5-3.2 4.3-6 4.3-2.8 0-5.1-1.8-6-4.3-1.4-0.4-2.4-1.6-2.4-3 0-0.8 0.3-1.6 0.8-2.1-0.5-0.6-0.8-1.3-0.8-2.1q0-0.4 0.1-0.7l-6.8 6.8-13.6 5.2q-0.5 0.2-1 0.2c-1.5 0-2.8-1.3-2.8-2.8q0-0.5 0.2-1l5.2-13.6 9.3-9.3c-0.6-1.6-1.1-3.5-1.1-5.8q0-1.6 0.3-3.1h-7.6c-3.5 0-6.3-2.9-6.3-6.3 0-2.9 1.9-5.3 4.5-6.1q-0.3-1.1-0.3-2.3c0-5.8 4.7-10.5 10.5-10.5 3.9 0 7.4 2.2 9.2 5.6q1.1-0.4 2.3-0.4c3.1 0 5.8 1.7 7.3 4.3q2.6 0.1 4.9 0.9l12.2-12.1c1.6-1.6 3.7-2.5 5.9-2.5 4.7 0 8.5 3.8 8.5 8.5 0 2.2-0.9 4.3-2.5 5.9l-12.1 12.2q0.8 2.3 0.9 4.9h2.2v2.1c0 0.8 0.5 1.5 1.2 1.9 0.8 0.3 1.7 0.1 2.3-0.5l1.5-1.5 4.4 4.5-1.5 1.5c-0.6 0.6-0.7 1.4-0.4 2.2 0.3 0.8 1 1.3 1.8 1.3zm0.1 2.1h-0.1c-1.6 0-3.1-1-3.7-2.6-0.7-1.5-0.4-3.3 0.8-4.5h0.1l-1.5-1.5h-0.1c-1.1 1.2-2.9 1.6-4.5 0.9-1.5-0.6-2.5-2.1-2.5-3.8v-0.1h-0.1c-0.1 2.1-0.6 3.8-1.3 5.3q0.2 0 0.3 0c4.1 0 7.4 3.3 7.4 7.3 0 4.1-3.3 7.4-7.4 7.4-3.7 0-6.8-2.8-7.3-6.5-1.1 1.3-2.2 2.7-2.8 4.5 0.4 0.5 0.7 1.2 0.7 2q0 0.4-0.2 0.8l1.5 1.5v-0.1c1.2-1.2 3-1.5 4.5-0.9 1.6 0.7 2.6 2.2 2.6 3.9h2.1c0-1.7 1-3.2 2.5-3.8 1.6-0.7 3.4-0.4 4.5 0.8l0.1 0.1 1.5-1.5-0.1-0.1c-1.2-1.1-1.5-2.9-0.9-4.5 0.7-1.5 2.2-2.5 3.8-2.5h0.1zm-13.4-20.6l5.6-5.6-3.7-3.8-4.9 4.9q1.8 2 3 4.5zm7.1-7.1l1.7-1.7-9-9-1.7 1.7zm-4.6-13.4l-1.2 1.2 9 9 1.2-1.2c1.2-1.2 1.9-2.8 1.9-4.5 0-3.6-2.9-6.4-6.4-6.4-1.7 0-3.3 0.7-4.5 1.9zm-11.5 11.5q2.5 1.1 4.5 3l4.9-4.9-3.8-3.7zm-6.2 0.3q0.3 1 0.3 2 0 0.6-0.1 1.1 0 0 0.1 0c2.9 0 5.2 2.3 5.2 5.2 0 2.9-2.3 5.3-5.2 5.3h-5.3v3.1c0 0.6 0.5 1 1.1 1h8.4c1.7 0 3.1 1.5 3.1 3.2 0 1.7-1.4 3.1-3.1 3.1h-10.5c-0.6 0-1 0.5-1 1.1 0 0.6 0.4 1 1 1h2.1c1.7 0 3.1 1.4 3.1 3.2v5.2h4.2q0.4 0 0.7 0.1c1.2-3 3.2-5 5.2-6.9 2.9-2.9 5.7-5.5 5.7-11 0-8.6-6.6-15.7-15-16.7zm-7 38.7h10.4c0.6 0 1.1-0.5 1.1-1 0-0.6-0.5-1.1-1.1-1.1h-10.4c-0.6 0-1.1 0.5-1.1 1.1 0 0.5 0.5 1 1.1 1zm-10.5 2.7l7.3-7.3c-0.9-1.6-2.1-2.9-3.4-4.1l-7.7 7.7zm-10.5-30h28.3c1.8 0 3.2-1.4 3.2-3.1 0-1.8-1.4-3.2-3.2-3.2-1.7 0-3.1 1.4-3.1 3.2h-2.1c0-2.1 1.2-3.9 2.9-4.7q0.2-0.8 0.2-1.6c0-3.5-2.8-6.3-6.3-6.3-3.1 0-5.7 2.3-6.2 5.4 1.8 0.5 3.1 2.1 3.1 4h-2.1c0-1.1-0.9-2.1-2.1-2.1-1.2 0-2.1 1-2.1 2.1h-2.1c0-2 1.4-3.6 3.2-4.1 0.3-2.6 1.9-5 4.1-6.3-1.5-2.6-4.2-4.3-7.3-4.3-4.6 0-8.4 3.8-8.4 8.4q0 1.1 0.3 2.1c3.3 0.2 6 2.9 6 6.3h-2.1c0-2.3-1.9-4.2-4.2-4.2-2.3 0-4.2 1.9-4.2 4.2 0 2.3 1.9 4.2 4.2 4.2zm9.8 2.1q-0.3 1.6-0.3 3.1c0 5.5 2.7 8.2 5.6 11 2 2 4.1 4 5.3 6.9q0.3 0 0.6 0h4.2v-5.3c0-0.6-0.5-1-1.1-1h-2.1c-1.7 0-3.1-1.4-3.1-3.2 0-1.7 1.4-3.1 3.1-3.1h10.5c0.6 0 1.1-0.5 1.1-1.1 0-0.5-0.5-1-1.1-1h-8.4c-1.7 0-3.1-1.4-3.1-3.2v-3.1zm-0.3 10.9l-8 8 3.8 3.7 7.7-7.7c-1.3-1.2-2.5-2.5-3.5-4zm-11.7 16.8l3.9 3.9 6.9-2.6-8.2-8.3zm1.8 4.8l-2.6-2.6-1 2.7q-0.1 0.1-0.1 0.3c0 0.5 0.5 0.8 1 0.7zm30.4-1h-7.4c0.8 1.2 2.1 2.1 3.7 2.1 1.5 0 2.9-0.9 3.7-2.1zm2.6-3.2c0-0.6-0.5-1-1.1-1h-10.5c-0.5 0-1 0.4-1 1 0 0.6 0.5 1.1 1 1.1h10.5c0.6 0 1.1-0.5 1.1-1.1zm6.3-11.5c0 2.9 2.3 5.2 5.2 5.2 2.9 0 5.2-2.3 5.2-5.2 0-2.9-2.3-5.3-5.2-5.3q-0.9 0-1.8 0.4c-1 1.3-2.1 2.4-3.3 3.5q-0.1 0.7-0.1 1.4z"/>
</svg>