<svg version="1.2" xmlns="http://www.w3.org/2000/svg" viewBox="0 0 65 65" width="65" height="65">
	<title>04-svg</title>
	<style>
		.s0 { fill: #1774f4 } 
	</style>
	<path id="Layer" fill-rule="evenodd" class="s0" d="m34 44.6c-1.4 1.8-3.3 3.1-5.5 3.8-2.2 0.6-4.6 0.5-6.7-0.4l-2.3-0.9v8.1q0 0.2-0.1 0.4l-1 3.1v6.3h-2.1v-5.4h-13.1v5.4h-2.1v-6.3l-1-3.1q-0.1-0.2-0.1-0.4v-13c0-1.7 0.7-3.3 1.9-4.5 1.2-1.3 2.9-1.9 4.6-2h1.1v-2.9l-2-2.9q-0.2-0.3-0.2-0.7v-2.1c0-1.5 0.6-2.8 1.6-3.8 1-1.1 2.4-1.6 3.8-1.6h5.5c0.7 0 1.5 0.2 2 0.7 0.6 0.5 1 1.2 1.2 2 0.1 0.7-0.1 1.5-0.4 2.2-0.4 0.6-1 1.1-1.8 1.4v4.5c0 0.7-0.2 1.3-0.6 1.9-0.4 0.5-0.9 0.9-1.5 1.2v0.1h3.3c0.8 0.1 1.6 0.2 2.4 0.6l4.9 2.5 6.7-5.7v-1.7c0-0.8 0.3-1.5 0.8-2.1 0.5-0.6 1.3-1 2.1-1.1l3.3-2.5c0.4-0.3 0.9-0.5 1.4-0.4 0.5 0 1 0.2 1.4 0.6q0.4 0.4 0.5 1 0.2 0.6 0 1.1l-0.8 2.5v4.2q0 0.3-0.2 0.6zm-26.5-15.6l1.7 2.5h1.9l1.9-4.8q0.1-0.3 0.4-0.5 0.3-0.1 0.6-0.1h2.2c0.3 0 0.5-0.2 0.8-0.4 0.2-0.2 0.3-0.4 0.3-0.7 0-0.3-0.1-0.6-0.3-0.8-0.3-0.2-0.5-0.3-0.8-0.3h-5.4c-0.9 0-1.7 0.3-2.3 0.9-0.6 0.6-1 1.5-1 2.3zm2.2 6.9h3.2v-1.1c0-0.3 0.1-0.6 0.4-0.8 0.2-0.2 0.4-0.3 0.7-0.3 0.3 0 0.6-0.1 0.8-0.3 0.2-0.2 0.3-0.5 0.3-0.8v-4.3h-0.3l-1.9 4.7q-0.2 0.3-0.4 0.5-0.3 0.2-0.6 0.2h-2.2zm11.2 9.6l2.4-5.4-3.4-1.7q-0.7-0.3-1.5-0.3h-12c-1.1 0-2.2 0.4-3 1.2-0.8 0.8-1.3 1.9-1.3 3.1v12.8l0.8 2.4h13.6l0.8-2.4v-9.6q0-0.2 0.1-0.5 0.1-0.2 0.3-0.3 0.3-0.2 0.5-0.2 0.3-0.1 0.6 0zm17.9-11v-4q0-0.2 0.1-0.3l0.8-2.5-3.5 2.6q-0.2 0.2-0.6 0.2c-0.3 0-0.6 0.1-0.8 0.3-0.2 0.2-0.3 0.5-0.3 0.8v2.2q0 0.2-0.1 0.4-0.1 0.2-0.3 0.4l-7.5 6.5q-0.3 0.2-0.6 0.2-0.3 0.1-0.6-0.1l-0.3-0.1-2.2 5.2c1.6 0.6 3.4 0.6 5.1 0.1 1.6-0.5 3.1-1.6 4.1-3z"/>
	<path id="Layer" fill-rule="evenodd" class="s0" d="m64 1c0.7 0.6 1 1.4 1 2.3v42.2c0 0.9-0.3 1.7-1 2.3-0.6 0.6-1.4 0.9-2.3 0.9h-28.1v-2.1h28.2c0.2 0 0.5-0.1 0.7-0.3 0.2-0.2 0.3-0.5 0.3-0.8v-35.8h-36.8v26h-2.2v-32.5c0-0.8 0.4-1.6 1-2.2 0.6-0.7 1.4-1 2.3-1h34.6c0.9 0 1.7 0.3 2.3 1zm-1.2 6.6v-4.4c0-0.2-0.1-0.5-0.3-0.7-0.2-0.2-0.5-0.3-0.8-0.3h-34.6c-0.3 0-0.6 0.1-0.8 0.3-0.2 0.2-0.3 0.5-0.3 0.7v4.4z"/>
	<path id="Layer" class="s0" d="m28.2 5.4c0.6 0 1.1-0.5 1.1-1.1 0-0.6-0.5-1.1-1.1-1.1-0.6 0-1.1 0.5-1.1 1.1 0 0.6 0.5 1.1 1.1 1.1z"/>
	<path id="Layer" class="s0" d="m31.4 5.4c0.6 0 1.1-0.5 1.1-1.1 0-0.6-0.5-1.1-1.1-1.1-0.6 0-1.1 0.5-1.1 1.1 0 0.6 0.5 1.1 1.1 1.1z"/>
	<path id="Layer" class="s0" d="m34.7 5.4c0.6 0 1-0.5 1-1.1 0-0.6-0.4-1.1-1-1.1-0.6 0-1.1 0.5-1.1 1.1 0 0.6 0.5 1.1 1.1 1.1z"/>
	<path id="Layer" class="s0" d="m32.5 16.3v-2.2h-2.2c-0.3 0-0.5 0.1-0.7 0.3-0.2 0.2-0.3 0.5-0.3 0.8v6.5c0 0.3 0.1 0.5 0.3 0.7 0.2 0.2 0.4 0.3 0.7 0.3h6.5c0.3 0 0.6-0.1 0.8-0.3 0.2-0.2 0.3-0.4 0.3-0.7v-6.1l1.9-1.8-1.6-1.6-6.5 6.5 1.6 1.6 2.5-2.5v2.8h-4.4v-4.4z"/>
	<path id="Layer" class="s0" d="m41.2 15.2h4.3v2.1h-4.3z"/>
	<path id="Layer" class="s0" d="m47.7 15.2h11.9v2.1h-11.9z"/>
	<path id="Layer" class="s0" d="m41.2 19.5h8.6v2.2h-8.6z"/>
	<path id="Layer" class="s0" d="m52 19.5h2.2v2.2h-2.2z"/>
	<path id="Layer" class="s0" d="m53.1 26h6.5v2.2h-6.5z"/>
	<path id="Layer" class="s0" d="m44.4 26h6.5v2.2h-6.5z"/>
	<path id="Layer" class="s0" d="m43.3 30.3h10.9v2.2h-10.9z"/>
	<path id="Layer" class="s0" d="m56.3 30.3h2.2v2.2h-2.2z"/>
	<path id="Layer" class="s0" d="m53.1 36.8h6.5v2.2h-6.5z"/>
	<path id="Layer" class="s0" d="m44.4 36.8h6.5v2.2h-6.5z"/>
	<path id="Layer" class="s0" d="m43.3 41.2h10.9v2.1h-10.9z"/>
	<path id="Layer" class="s0" d="m56.3 41.2h2.2v2.1h-2.2z"/>
</svg>