<svg version="1.2" xmlns="http://www.w3.org/2000/svg" viewBox="0 0 65 67" width="65" height="67">
	<title>05-svg</title>
	<style>
		.s0 { fill: #1774f4 } 
	</style>
	<path id="Layer" fill-rule="evenodd" class="s0" d="m63.5 33.4q0.6 0.3 1 0.8 0.3 0.6 0.5 1.2 0.1 0.7-0.1 1.3l-3.8 12.2q0 0.1-0.1 0.2l-4.4 6.7q-0.1 0.2-0.3 0.3l-5.7 3.7q-0.2 0.2-0.3 0.4-0.1 0.3-0.2 0.5v4.4c0 0.3-0.1 0.6-0.3 0.8-0.2 0.2-0.5 0.3-0.8 0.3h-9.9q-0.2 0-0.4-0.1-0.3-0.1-0.4-0.3-0.2-0.2-0.2-0.4-0.1-0.2-0.1-0.5l1.1-8.8q0-0.1 0.1-0.2l2.2-6.6q0-0.2 0.1-0.3l5.5-7.2c0.5-0.7 1.2-1.1 2-1.3 0.8-0.1 1.6 0 2.3 0.5 0.7 0.4 1.2 1.1 1.4 1.9 0.2 0.8 0 1.7-0.4 2.4l-1.6 2.8 1-0.5 3.1-3 4.9-10q0.4-0.7 1.1-1.1 0.6-0.4 1.4-0.4 0.7 0 1.3 0.3zm-0.7 2.4q0-0.2-0.1-0.3-0.1-0.1-0.2-0.1-0.1-0.1-0.3-0.1-0.1 0-0.3 0.1-0.1 0.1-0.2 0.2l-5 10.1q-0.1 0.2-0.3 0.3l-3.3 3.3q-0.1 0.1-0.3 0.2l-4.4 2.2q-0.3 0.2-0.7 0.1-0.3 0-0.6-0.3-0.2-0.3-0.3-0.6 0-0.4 0.2-0.7l3.4-6q0.2-0.4 0.1-0.8-0.1-0.3-0.4-0.6-0.3-0.2-0.7-0.1-0.4 0.1-0.7 0.4l-5.3 7.1-2.1 6.3-0.9 7.5h7.5v-3.3q0-0.8 0.4-1.5 0.4-0.7 1.1-1.2l5.5-3.6 4.2-6.3 3.7-12.1q0-0.1 0-0.2z"/>
	<path id="Layer" fill-rule="evenodd" class="s0" d="m25.9 56.1l1.1 8.8q0 0.3-0.1 0.5 0 0.2-0.2 0.4-0.1 0.2-0.4 0.3-0.2 0.1-0.4 0.1h-9.9c-0.3 0-0.6-0.1-0.8-0.3-0.2-0.2-0.4-0.5-0.4-0.8v-4.4q0-0.2-0.1-0.5-0.1-0.2-0.3-0.4l-5.7-3.7q-0.2-0.1-0.3-0.3l-4.4-6.7q-0.1-0.1-0.1-0.2l-3.8-12.2c-0.2-0.7-0.1-1.4 0.2-2 0.3-0.7 0.8-1.1 1.4-1.4 0.7-0.3 1.4-0.3 2.1 0 0.6 0.2 1.2 0.7 1.5 1.3l4.9 10 3.1 3 1 0.5-1.6-2.8c-0.4-0.7-0.6-1.6-0.4-2.4 0.2-0.8 0.7-1.5 1.4-1.9 0.7-0.5 1.5-0.6 2.3-0.5 0.8 0.2 1.5 0.6 2 1.3l5.5 7.2q0.1 0.1 0.1 0.3l2.2 6.6q0.1 0.1 0.1 0.2zm-1.3 7.9l-0.9-7.5-2.1-6.3-5.3-7.1q-0.3-0.3-0.7-0.4-0.4-0.1-0.7 0.1-0.3 0.3-0.4 0.6-0.1 0.4 0.1 0.8l3.4 6q0.2 0.3 0.2 0.7-0.1 0.3-0.3 0.6-0.3 0.3-0.6 0.3-0.4 0.1-0.7-0.1l-4.4-2.2q-0.2-0.1-0.3-0.2l-3.3-3.3q-0.2-0.1-0.3-0.3l-5-10.1q-0.1-0.1-0.2-0.2-0.2-0.1-0.3-0.1-0.2 0-0.3 0.1-0.1 0-0.2 0.1-0.1 0.1-0.1 0.3 0 0.1 0 0.2l3.7 12.1 4.2 6.3 5.5 3.6q0.7 0.5 1.1 1.2 0.4 0.7 0.4 1.5v3.3z"/>
	<path id="Layer" fill-rule="evenodd" class="s0" d="m13 37.2c-0.2-0.2-0.4-0.5-0.4-0.8v-8.8c0-0.9 0.4-1.7 1-2.4 0.6-0.6 1.5-0.9 2.4-0.9h0.4c-0.7-0.6-1.2-1.4-1.4-2.3-0.2-0.8-0.2-1.8 0.1-2.6 0.3-0.9 0.9-1.6 1.6-2.1 0.8-0.5 1.7-0.8 2.6-0.8 0.9 0 1.7 0.3 2.5 0.8 0.7 0.5 1.3 1.2 1.6 2.1 0.3 0.8 0.4 1.8 0.1 2.6-0.2 0.9-0.7 1.7-1.3 2.3h0.4q0.8 0 1.5 0.3c0.3-0.7 0.9-1.4 1.6-1.8 0.7-0.5 1.5-0.7 2.4-0.7h1.3c-0.8-0.7-1.4-1.6-1.7-2.5-0.3-1-0.2-2.1 0.1-3.1 0.4-0.9 1-1.8 1.8-2.4 0.9-0.6 1.9-0.9 2.9-0.9 1 0 2 0.3 2.9 0.9 0.8 0.6 1.4 1.5 1.8 2.4 0.3 1 0.4 2.1 0.1 3.1-0.3 0.9-0.9 1.8-1.7 2.5h1.3c0.9 0 1.7 0.2 2.4 0.7 0.7 0.4 1.3 1.1 1.6 1.8q0.7-0.3 1.5-0.3h0.4c-0.6-0.6-1.1-1.4-1.3-2.3-0.3-0.8-0.2-1.8 0.1-2.6 0.3-0.9 0.9-1.6 1.6-2.1 0.8-0.5 1.6-0.8 2.5-0.8 0.9 0 1.8 0.3 2.6 0.8 0.7 0.5 1.3 1.2 1.6 2.1 0.3 0.8 0.3 1.8 0.1 2.6-0.2 0.9-0.7 1.7-1.4 2.3h0.4c0.9 0 1.8 0.3 2.4 0.9 0.6 0.7 1 1.5 1 2.4v8.8c0 0.3-0.2 0.6-0.4 0.8-0.2 0.2-0.5 0.3-0.7 0.3h-37.6c-0.2 0-0.5-0.1-0.7-0.3zm31.2-17.8c-0.4 0.4-0.7 1-0.7 1.6q0 0.6 0.4 1.2 0.4 0.5 1 0.8 0.6 0.2 1.3 0.1 0.6-0.1 1.1-0.6 0.5-0.5 0.6-1.1 0.1-0.7-0.1-1.3-0.3-0.6-0.8-1-0.6-0.3-1.3-0.3c-0.5 0-1.1 0.2-1.5 0.6zm-2.9 15.9h8.8v-7.7c0-0.3-0.1-0.6-0.3-0.8-0.2-0.2-0.5-0.3-0.8-0.3h-6.6c-0.3 0-0.5 0.1-0.8 0.3-0.2 0.2-0.3 0.5-0.3 0.8zm-10.8-19.1c-0.5 0.5-0.8 1.2-0.8 2 0 0.5 0.2 1.1 0.5 1.5 0.3 0.5 0.7 0.8 1.2 1 0.5 0.2 1.1 0.3 1.6 0.2 0.6-0.1 1.1-0.4 1.4-0.8 0.4-0.4 0.7-0.8 0.8-1.4 0.1-0.5 0.1-1.1-0.2-1.6-0.2-0.5-0.5-0.9-1-1.2-0.4-0.3-1-0.5-1.5-0.5-0.7 0-1.4 0.3-2 0.8zm-4.6 19.1h13.2v-8.8c0-0.6-0.2-1.2-0.6-1.6-0.4-0.4-1-0.7-1.6-0.7h-8.8c-0.6 0-1.2 0.3-1.6 0.7-0.4 0.4-0.6 1-0.6 1.6zm-8.2-15.9c-0.4 0.4-0.6 0.9-0.6 1.5q0 0.7 0.3 1.2 0.4 0.6 1 0.9 0.6 0.2 1.3 0.1 0.6-0.2 1.1-0.6 0.5-0.5 0.6-1.2 0.2-0.6-0.1-1.2-0.3-0.6-0.8-1-0.6-0.4-1.2-0.4c-0.6 0-1.2 0.2-1.6 0.7zm-2.9 15.9h8.9v-7.8c0-0.3-0.1-0.5-0.3-0.7-0.3-0.3-0.5-0.4-0.8-0.4h-6.6c-0.3 0-0.6 0.1-0.8 0.4-0.2 0.2-0.4 0.4-0.4 0.7z"/>
	<path id="Layer" class="s0" d="m7.1 14.3v10h2.2v-9.1l10.3-3.1q0.3-0.1 0.5-0.4 0.3-0.3 0.3-0.7v-5l2.5 2.5 1.6-1.6-4.5-4.4c-0.2-0.2-0.4-0.3-0.7-0.3-0.3 0-0.6 0.1-0.8 0.3l-4.4 4.4 1.5 1.6 2.6-2.5v4.2l-10.3 3.1q-0.3 0.1-0.6 0.4-0.2 0.3-0.2 0.6z"/>
	<path id="Layer" class="s0" d="m33.6 9.9v-6.1l2.5 2.5 1.6-1.6-4.4-4.4c-0.2-0.2-0.5-0.3-0.8-0.3-0.3 0-0.6 0.1-0.8 0.3l-4.4 4.4 1.6 1.6 2.5-2.5v6.1z"/>
	<path id="Layer" class="s0" d="m49.4 8.5l1.5-1.6-4.4-4.4c-0.2-0.2-0.5-0.3-0.8-0.3-0.3 0-0.5 0.1-0.7 0.3l-4.5 4.4 1.6 1.6 2.5-2.5v5q0 0.4 0.2 0.7 0.3 0.3 0.6 0.4l9.2 3v9.2h2.2v-10q0-0.3-0.2-0.6-0.3-0.3-0.6-0.4l-9.2-3.1v-4.2z"/>
</svg>