<svg version="1.2" xmlns="http://www.w3.org/2000/svg" viewBox="0 0 65 67" width="65" height="67">
	<title>06-svg</title>
	<style>
		.s0 { fill: #1774f4 } 
	</style>
	<path id="Layer" fill-rule="evenodd" class="s0" d="m29.3 62.7q0.1 0.4-0.1 0.7-0.2 0.3-0.5 0.5c-9 3.5-19 3.5-28 0q-0.4-0.2-0.6-0.5-0.2-0.3-0.1-0.7l1.3-6.3c0.3-1.5 0.9-2.8 1.7-4.1 0.9-1.2 2-2.2 3.3-2.9q1.9-1.1 4-1.6c-1.3-0.9-2.2-2.2-2.6-3.7-0.5-1.5-0.5-3 0-4.5 0.5-1.5 1.4-2.7 2.7-3.6 1.2-0.9 2.7-1.4 4.3-1.4 1.5 0 3 0.5 4.3 1.4 1.2 0.9 2.1 2.1 2.6 3.6 0.5 1.5 0.5 3 0.1 4.5-0.5 1.5-1.4 2.8-2.6 3.7q2.1 0.5 3.9 1.6c1.3 0.7 2.4 1.7 3.3 2.9 0.9 1.3 1.5 2.6 1.8 4.1zm-18.4-17.1c1 1 2.3 1.6 3.7 1.6 1.1 0 2.1-0.3 2.9-0.9 0.9-0.6 1.6-1.4 2-2.4 0.4-0.9 0.5-2 0.3-3-0.2-1-0.7-1.9-1.5-2.7-0.7-0.7-1.6-1.2-2.7-1.4-1-0.2-2-0.1-3 0.3-0.9 0.4-1.8 1.1-2.3 1.9-0.6 0.9-0.9 1.9-0.9 2.9 0 1.4 0.5 2.8 1.5 3.7zm16.1 16.6l-1-5.4c-0.3-1.2-0.8-2.3-1.5-3.2-0.6-1-1.5-1.8-2.6-2.4-2.2-1.2-4.7-1.9-7.3-1.9-2.5 0-5.1 0.7-7.3 1.9-1 0.6-1.9 1.4-2.6 2.4-0.7 0.9-1.2 2-1.4 3.2l-1.1 5.4c8 2.9 16.8 2.9 24.8 0z"/>
	<path id="Layer" fill-rule="evenodd" class="s0" d="m64.9 63.4q-0.2 0.3-0.6 0.5c-9 3.5-19 3.5-28 0q-0.3-0.2-0.5-0.5-0.2-0.3-0.1-0.7l1.2-6.3c0.3-1.5 0.9-2.8 1.8-4.1 0.9-1.2 2-2.2 3.3-2.9q1.8-1.1 3.9-1.6c-1.2-0.9-2.1-2.2-2.6-3.7-0.4-1.5-0.4-3 0.1-4.5 0.4-1.5 1.4-2.7 2.6-3.6 1.3-0.9 2.8-1.4 4.3-1.4 1.6 0 3.1 0.5 4.3 1.4 1.3 0.9 2.2 2.1 2.7 3.6 0.5 1.5 0.5 3 0 4.5-0.4 1.5-1.3 2.8-2.6 3.7q2.1 0.5 4 1.6c1.3 0.7 2.4 1.7 3.3 2.9 0.8 1.2 1.4 2.6 1.7 4.1l1.3 6.3q0.1 0.4-0.1 0.7zm-18.3-17.8c1 1 2.3 1.6 3.7 1.6 1.1 0 2.1-0.3 2.9-0.9 0.9-0.6 1.6-1.4 2-2.4 0.4-0.9 0.5-2 0.3-3-0.2-1-0.7-1.9-1.5-2.7-0.7-0.7-1.6-1.2-2.7-1.4-1-0.2-2-0.1-3 0.3-0.9 0.4-1.8 1.1-2.3 1.9-0.6 0.9-0.9 1.9-0.9 2.9 0 1.4 0.5 2.8 1.5 3.7zm16.1 16.6l-1-5.4c-0.3-1.2-0.7-2.3-1.4-3.2-0.7-1-1.6-1.8-2.7-2.4-2.2-1.2-4.7-1.9-7.3-1.9-2.5 0-5.1 0.7-7.3 1.9-1 0.6-1.9 1.4-2.6 2.4-0.7 0.9-1.2 2-1.4 3.2l-1.1 5.4c8 2.9 16.8 2.9 24.8 0z"/>
	<path id="Layer" fill-rule="evenodd" class="s0" d="m8.7 22.8c-0.2-0.2-0.3-0.5-0.3-0.8v-21c0-0.2 0.1-0.5 0.3-0.7 0.2-0.2 0.5-0.3 0.7-0.3h33.6c0.3 0 0.5 0.1 0.7 0.3 0.2 0.2 0.3 0.5 0.3 0.7v21c0 0.3-0.1 0.6-0.3 0.8q-0.3 0.3-0.7 0.3h-18.5l-8.1 6q-0.3 0.2-0.6 0.3-0.3 0-0.5-0.2-0.3-0.1-0.5-0.3-0.1-0.3-0.1-0.6v-5.2h-5.3c-0.2 0-0.5-0.1-0.7-0.3zm1.8-1.8h5.2c0.3 0 0.6 0.1 0.8 0.3 0.2 0.2 0.3 0.4 0.3 0.7v4.2l6.7-5q0.3-0.2 0.6-0.2h17.8v-18.9h-31.4z"/>
	<path id="Layer" class="s0" d="m52.8 33.3q0.2 0.2 0.5 0.2 0.3 0.1 0.6 0 0.3-0.2 0.5-0.4 0.1-0.3 0.1-0.6v-5.2h4.2c0.3 0 0.6-0.2 0.8-0.3 0.1-0.2 0.3-0.5 0.3-0.8v-19.9c0-0.3-0.2-0.6-0.3-0.8-0.2-0.1-0.5-0.3-0.8-0.3h-9.4c-0.3 0-0.6 0.2-0.8 0.3-0.2 0.2-0.3 0.5-0.3 0.8 0 0.3 0.1 0.5 0.3 0.7 0.2 0.2 0.5 0.3 0.8 0.3h8.4v17.9h-4.2c-0.3 0-0.6 0.1-0.8 0.3-0.2 0.2-0.3 0.4-0.3 0.7v4l-5.6-4.8q-0.3-0.2-0.7-0.2h-15.7c-0.3 0-0.5 0.1-0.7 0.3-0.2 0.2-0.3 0.4-0.3 0.7 0 0.3 0.1 0.6 0.3 0.8 0.2 0.1 0.4 0.3 0.7 0.3h15.3z"/>
	<path id="Layer" fill-rule="evenodd" class="s0" d="m15.7 14.7q-0.4 0-0.7-0.3-0.3-0.3-0.3-0.8v-4.2c0-0.2 0.1-0.5 0.3-0.7 0.2-0.2 0.4-0.3 0.7-0.3h4.2c0.3 0 0.6 0.1 0.8 0.3 0.2 0.2 0.3 0.5 0.3 0.7v4.2c0 0.3-0.1 0.6-0.3 0.8-0.2 0.2-0.5 0.3-0.8 0.3zm1.1-2.1h2.1v-2.1h-2.1z"/>
	<path id="Layer" fill-rule="evenodd" class="s0" d="m31.8 14.4c-0.2-0.2-0.3-0.5-0.3-0.8v-4.2c0-0.2 0.1-0.5 0.3-0.7 0.2-0.2 0.4-0.3 0.7-0.3h4.2c0.3 0 0.5 0.1 0.7 0.3 0.2 0.2 0.3 0.5 0.3 0.7v4.2q0 0.5-0.3 0.8c-0.2 0.2-0.4 0.3-0.7 0.3h-4.2c-0.3 0-0.5-0.1-0.7-0.3zm1.7-1.8h2.1v-2.1h-2.1z"/>
	<path id="Layer" fill-rule="evenodd" class="s0" d="m23.4 14.4q-0.3-0.3-0.3-0.8v-4.2c0-0.2 0.1-0.5 0.3-0.7 0.2-0.2 0.4-0.3 0.7-0.3h4.2c0.3 0 0.6 0.1 0.7 0.3 0.2 0.2 0.4 0.5 0.4 0.7v4.2c0 0.3-0.2 0.6-0.4 0.8-0.1 0.2-0.4 0.3-0.7 0.3h-4.2c-0.3 0-0.5-0.1-0.7-0.3zm1.8-1.8h2.1v-2.1h-2.1z"/>
</svg>