<svg version="1.2" xmlns="http://www.w3.org/2000/svg" viewBox="0 0 45 53" width="45" height="53">
	<title>10-svg</title>
	<style>
		.s0 { fill: #1774f4 } 
	</style>
	<path id="Layer" class="s0" d="m44.3 5c-0.6-0.9-1.5-1.4-2.5-1.6-1.1-0.2-2.1 0.1-2.9 0.7l-17.9 12.7-2-7.5-0.1-0.4c-0.7-2.3-1.5-5-4.4-5.1l-3.9-0.1 0.4 4.7 1.5-0.1-0.2-3 2.2 0.1c1.7 0 2.2 1.4 2.9 3.9l0.1 0.4 2.1 8.1-1.4 1 0.9 1.3 20.7-14.8c0.5-0.3 1.1-0.5 1.7-0.4 0.6 0.1 1.2 0.5 1.5 1 0.4 0.5 0.5 1.1 0.4 1.7-0.1 0.6-0.4 1.2-0.9 1.5l-12.6 9 0.9 1.2 2.5-1.7c0.5-0.4 1.1-0.5 1.7-0.4 0.6 0.1 1.1 0.4 1.5 0.9 0.7 1.1 0.5 2.5-0.6 3.3l-3.6 2.6 0.9 1.2 2.3-1.6c0.5-0.4 1.1-0.5 1.8-0.4 0.6 0.1 1.1 0.4 1.5 0.9 0.7 1.1 0.5 2.5-0.6 3.3l-2.9 2.1 0.9 1.3 1.7-1.2c0.5-0.4 1.1-0.5 1.7-0.4 0.6 0.1 1.1 0.4 1.5 0.9 0.7 1 0.5 2.5-0.5 3.2l-4.2 3 0.9 1.2 4.2-2.9c1.7-1.2 2.1-3.7 0.9-5.4-0.6-0.8-1.4-1.3-2.3-1.5 0.9-1.3 0.9-3.1-0.1-4.5-0.5-0.7-1.3-1.3-2.2-1.5 0.9-1.3 0.9-3.1 0-4.5-0.5-0.7-1.2-1.2-2-1.4l7.6-5.4c0.8-0.6 1.4-1.5 1.5-2.5 0.2-1.1 0-2.1-0.6-2.9z"/>
	<path id="Layer" fill-rule="evenodd" class="s0" d="m32.7 39l0.9 1.2-4.3 3-8.7 2.5-2.9 2 0.9 1.2-5 3.6q-0.6 0.5-1.4 0.5-0.2 0-0.4-0.1c-0.6-0.1-1.1-0.4-1.5-0.9l-9.9-14c-0.3-0.5-0.5-1.1-0.4-1.8 0.1-0.6 0.5-1.1 1-1.5l7.7-5.4 3-11.9-0.6-7.4 1.6-0.1 0.5 7.7-3.1 12.6-3.2 2.2 9.9 14 3.1-2.2 8.8-2.4zm-16.2 9.6l-10.8-15.2-3.8 2.7q-0.3 0.1-0.3 0.5-0.1 0.3 0.1 0.5l9.9 14q0.2 0.3 0.5 0.3 0.3 0.1 0.6-0.1z"/>
	<path id="Layer" class="s0" d="m33.9 38.1l1.3-0.9 0.9 1.3-1.3 0.9z"/>
	<path id="Layer" class="s0" d="m20.2 1.1l1.4-0.6 2.3 5.4-1.4 0.6z"/>
	<path id="Layer" class="s0" d="m25.6 0h1.5v5.4h-1.5z"/>
	<path id="Layer" class="s0" d="m28.7 5.9l2.4-5.4 1.4 0.6-2.3 5.4z"/>
	<path id="Layer" class="s0" d="m26.1 26.2l1.3-0.9 0.9 1.3-1.3 0.9z"/>
	<path id="Layer" class="s0" d="m27.9 28.8l1.3-0.9 0.8 1.3-1.2 0.9z"/>
</svg>